<svg width="28" height="24" viewBox="0 0 28 24" fill="none" xmlns="http://www.w3.org/2000/svg">
<path d="M27.75 0.749996C26.553 1.59434 25.2276 2.24013 23.825 2.6625C23.0722 1.79688 22.0717 1.18336 20.9588 0.904904C19.8459 0.626447 18.6744 0.696491 17.6026 1.10556C16.5308 1.51464 15.6106 2.243 14.9662 3.19214C14.3219 4.14129 13.9846 5.26542 14 6.4125V7.6625C11.8033 7.71946 9.62659 7.23226 7.66376 6.2443C5.70093 5.25635 4.0129 3.79829 2.75 2C2.75 2 -2.25 13.25 9 18.25C6.42566 19.9975 3.35895 20.8737 0.25 20.75C11.5 27 25.25 20.75 25.25 6.375C25.2488 6.02681 25.2154 5.67949 25.15 5.3375C26.4258 4.07936 27.326 2.49089 27.75 0.749996Z" fill="#1DA1F2"/>
</svg>
